<svg width="21" height="48" fill="none" xmlns="http://www.w3.org/2000/svg"><path fill="#fff" d="M0 39h3v3H0zM3 39h3v3H3zM3 42h3v3H3zM0 45h3v3H0zM3 45h3v3H3zM6 45h3v3H6zM9 45h3v3H9zM12 45h3v3h-3zM15 45h3v3h-3zM18 45h3v3h-3zM12 42h3v3h-3zM15 42h3v3h-3zM18 39h3v3h-3zM15 39h3v3h-3zM6 42h3v3H6zM9 42h3v3H9zM12 39h3v3h-3zM6 39h3v3H6zM9 39h3v3H9zM12 36h3v3h-3zM6 36h3v3H6zM9 36h3v3H9zM12 30h3v3h-3zM6 30h3v3H6zM9 30h3v3H9zM12 33h3v3h-3zM6 33h3v3H6zM9 33h3v3H9zM12 27h3v3h-3zM6 27h3v3H6zM9 27h3v3H9zM12 21h3v3h-3zM3 21h3v3H3zM15 21h3v3h-3zM6 21h3v3H6zM6 18h3v3H6zM9 21h3v3H9zM12 18h3v3h-3zM9 18h3v3H9zM6 12h3v3H6zM12 12h3v3h-3zM15 12h3v3h-3zM3 12h3v3H3zM3 9h3v3H3zM0 6h3v3H0zM18 6h3v3h-3zM18 9h3v3h-3zM0 9h3v3H0zM9 6h3v3H9zM6 3h3v3H6zM9 0h3v3H9zM9 3h3v3H9zM12 3h3v3h-3zM6 9h3v3H6zM9 9h3v3H9zM12 9h3v3h-3zM15 9h3v3h-3zM9 12h3v3H9zM6 15h3v3H6zM12 15h3v3h-3zM9 15h3v3H9zM12 24h3v3h-3zM6 24h3v3H6zM9 24h3v3H9z"/></svg>